<?xml version="1.0" encoding="utf-8"?>
<!-- Generator: Adobe Illustrator 22.1.0, SVG Export Plug-In . SVG Version: 6.00 Build 0)  -->
<svg version="1.1" id="Layer_1" xmlns="http://www.w3.org/2000/svg" xmlns:xlink="http://www.w3.org/1999/xlink" x="0px" y="0px"
	 width="1280px" height="320px" viewBox="0 0 1280 320" style="enable-background:new 0 0 1280 320;" xml:space="preserve">
<style type="text/css">
	.st0{fill:none;}
	.st1{fill:#B83842;}
	.st2{fill:#FFFFFF;}
	.st3{fill:url(#SVGID_3_);}
	.st4{fill:url(#SVGID_4_);}
	.st5{fill:none;stroke:#B83842;stroke-miterlimit:10;}
	.st6{fill:url(#SVGID_5_);fill-opacity:0.5;}
	.st7{fill:url(#SVGID_6_);fill-opacity:0.77;}
	.st8{fill:none;stroke:#B83842;stroke-miterlimit:10;stroke-opacity:0.68;}
	.st9{fill:none;stroke:#B83842;stroke-width:0.9701;stroke-miterlimit:10;}
	.st10{fill:none;stroke:#B83842;stroke-width:0.5;stroke-miterlimit:10;stroke-opacity:0.31;}
	.st11{fill:none;stroke:#222222;stroke-width:0.7343;stroke-miterlimit:10;}
	.st12{fill:#222222;}
</style>
<pattern  y="320" width="6" height="6" patternUnits="userSpaceOnUse" id="New_Pattern_4" viewBox="0 -6 6 6" style="overflow:visible;">
	<g>
		<rect y="-6" class="st0" width="6" height="6"/>
		<g>
			<rect y="-6" class="st0" width="6" height="6"/>
			<circle class="st1" cx="3" cy="-3" r="1"/>
		</g>
	</g>
</pattern>
<pattern  y="320" width="6" height="6" patternUnits="userSpaceOnUse" id="SVGID_1_" viewBox="0 -6 6 6" style="overflow:visible;">
	<g>
		<rect y="-6" class="st0" width="6" height="6"/>
		<g>
			<rect y="-6" class="st0" width="6" height="6"/>
			<circle class="st1" cx="3" cy="-3" r="1"/>
		</g>
	</g>
</pattern>
<pattern  y="320" width="6" height="6" patternUnits="userSpaceOnUse" id="SVGID_2_" viewBox="0 -6 6 6" style="overflow:visible;">
	<g>
		<rect y="-6" class="st0" width="6" height="6"/>
		<g>
			<rect y="-6" class="st0" width="6" height="6"/>
			<circle class="st1" cx="3" cy="-3" r="1"/>
		</g>
	</g>
</pattern>
<g id="Layer_2_1_">
	<rect class="st2" width="1280" height="320"/>
	<pattern  id="SVGID_3_" xlink:href="#New_Pattern_4" patternTransform="matrix(1 0 0 -1 0 -16402)">
	</pattern>
	<polygon class="st3" points="134.6,249.5 260.5,0.5 8.7,0.5 	"/>
	<pattern  id="SVGID_4_" xlink:href="#SVGID_1_" patternTransform="matrix(0.4578 0 0 -0.4578 -8187.0181 -7687.6812)">
	</pattern>
	<polygon class="st4" points="817.4,126 875,12 759.7,12 	"/>
	<polygon class="st5" points="1253,275 1322,137 1184,137 	"/>
	<pattern  id="SVGID_5_" xlink:href="#New_Pattern_4" patternTransform="matrix(1 0 0 -1 0 -16402)">
	</pattern>
	<polygon class="st6" points="668.4,-76.9 467.7,320 869,320 	"/>
	<pattern  id="SVGID_6_" xlink:href="#SVGID_2_" patternTransform="matrix(0.8441 0 0 -0.8441 -2365.53 -13896.1982)">
	</pattern>
	<polygon class="st7" points="1184.1,-15 1014.7,320 1353.5,320 	"/>
	<polygon class="st8" points="92.5,198 67,246 118,246 	"/>
	<polygon class="st9" points="833.5,28.5 809.5,76.5 857.5,76.5 	"/>
	<polygon class="st10" points="164,124 89,273 239,273 	"/>
	<rect x="213.5" y="157.5" class="st11" width="152" height="36"/>
	<g>
		<rect x="193.3" y="168" class="st0" width="190.7" height="28"/>
		<path class="st12" d="M240.1,180.8l-4-12.1h1.7l1.9,6c0.5,1.6,1,3.1,1.3,4.5l0,0c0.3-1.4,0.8-2.9,1.4-4.5l2.1-6h1.7l-4.3,12.1
			H240.1z"/>
		<path class="st12" d="M247.7,176.7c0,2.1,1.4,3,3,3c1.1,0,1.8-0.2,2.4-0.5l0.3,1.1c-0.6,0.3-1.5,0.5-2.9,0.5
			c-2.7,0-4.3-1.8-4.3-4.4c0-2.6,1.5-4.7,4.1-4.7c2.8,0,3.6,2.5,3.6,4.1c0,0.3,0,0.6-0.1,0.7h-6.1V176.7z M252.3,175.6
			c0-1-0.4-2.6-2.2-2.6c-1.6,0-2.3,1.5-2.4,2.6H252.3z"/>
		<path class="st12" d="M255.8,174.8c0-1,0-1.9-0.1-2.7h1.4l0.1,1.7h0.1c0.4-1.2,1.4-1.9,2.4-1.9c0.2,0,0.3,0,0.5,0.1v1.5
			c-0.2,0-0.3-0.1-0.5-0.1c-1.1,0-1.9,0.8-2.1,2c0,0.2-0.1,0.5-0.1,0.7v4.6h-1.6L255.8,174.8L255.8,174.8z"/>
		<path class="st12" d="M265.5,174.9c0-1.1,0-2-0.1-2.8h1.4l0.1,1.5l0,0c0.6-1.1,1.7-1.7,3.1-1.7c2.1,0,3.7,1.8,3.7,4.4
			c0,3.1-1.9,4.7-4,4.7c-1.2,0-2.2-0.5-2.7-1.4l0,0v4.7h-1.6v-9.4H265.5z M267.1,177.2c0,0.2,0,0.5,0.1,0.6c0.3,1.1,1.2,1.9,2.4,1.9
			c1.7,0,2.6-1.4,2.6-3.4c0-1.7-0.9-3.2-2.6-3.2c-1.1,0-2.1,0.8-2.4,2c-0.1,0.2-0.1,0.4-0.1,0.6V177.2z"/>
		<path class="st12" d="M275.8,174.8c0-1,0-1.9-0.1-2.7h1.4l0.1,1.7h0.1c0.4-1.2,1.4-1.9,2.4-1.9c0.2,0,0.3,0,0.5,0.1v1.5
			c-0.2,0-0.3-0.1-0.5-0.1c-1.1,0-1.9,0.8-2.1,2c0,0.2-0.1,0.5-0.1,0.7v4.6h-1.6L275.8,174.8L275.8,174.8z"/>
		<path class="st12" d="M289.4,176.4c0,3.2-2.2,4.6-4.3,4.6c-2.4,0-4.2-1.7-4.2-4.5c0-2.9,1.9-4.6,4.3-4.6
			C287.7,171.9,289.4,173.7,289.4,176.4z M282.5,176.4c0,1.9,1.1,3.3,2.6,3.3s2.6-1.4,2.6-3.4c0-1.5-0.7-3.3-2.6-3.3
			C283.3,173.1,282.5,174.8,282.5,176.4z"/>
		<path class="st12" d="M298.9,168v10.5c0,0.8,0,1.7,0.1,2.3h-1.4l-0.1-1.5l0,0c-0.5,1-1.5,1.7-3,1.7c-2.1,0-3.7-1.8-3.7-4.4
			c0-2.9,1.8-4.7,3.9-4.7c1.3,0,2.2,0.6,2.6,1.3l0,0V168H298.9z M297.3,175.6c0-0.2,0-0.5-0.1-0.7c-0.2-1-1.1-1.8-2.3-1.8
			c-1.6,0-2.6,1.4-2.6,3.4c0,1.8,0.9,3.2,2.6,3.2c1.1,0,2-0.7,2.3-1.9c0.1-0.2,0.1-0.4,0.1-0.7V175.6z"/>
		<path class="st12" d="M308.8,178.4c0,0.9,0,1.7,0.1,2.4h-1.4l-0.1-1.4l0,0c-0.4,0.7-1.3,1.6-2.9,1.6c-1.4,0-3-0.8-3-3.8v-5.1h1.6
			v4.8c0,1.7,0.5,2.8,1.9,2.8c1.1,0,1.8-0.7,2.1-1.4c0.1-0.2,0.1-0.5,0.1-0.8v-5.3h1.6L308.8,178.4L308.8,178.4z"/>
		<path class="st12" d="M317.6,180.5c-0.4,0.2-1.3,0.5-2.5,0.5c-2.6,0-4.3-1.8-4.3-4.4c0-2.7,1.8-4.6,4.7-4.6c0.9,0,1.8,0.2,2.2,0.5
			l-0.4,1.2c-0.4-0.2-1-0.4-1.8-0.4c-2,0-3.1,1.5-3.1,3.3c0,2,1.3,3.3,3,3.3c0.9,0,1.5-0.2,1.9-0.4L317.6,180.5z"/>
		<path class="st12" d="M321.6,169.6v2.5h2.3v1.2h-2.3v4.7c0,1.1,0.3,1.7,1.2,1.7c0.4,0,0.7-0.1,0.9-0.1l0.1,1.2
			c-0.3,0.1-0.8,0.2-1.4,0.2c-0.7,0-1.3-0.2-1.7-0.7c-0.5-0.5-0.6-1.2-0.6-2.3v-4.8h-1.4V172h1.4v-2L321.6,169.6z"/>
		<path class="st12" d="M333.5,176.4c0,3.2-2.2,4.6-4.3,4.6c-2.4,0-4.2-1.7-4.2-4.5c0-2.9,1.9-4.6,4.3-4.6
			C331.8,171.9,333.5,173.7,333.5,176.4z M326.6,176.4c0,1.9,1.1,3.3,2.6,3.3s2.6-1.4,2.6-3.4c0-1.5-0.7-3.3-2.6-3.3
			C327.4,173.1,326.6,174.8,326.6,176.4z"/>
		<path class="st12" d="M335.3,179.2c0.5,0.3,1.3,0.6,2.1,0.6c1.2,0,1.7-0.6,1.7-1.3c0-0.8-0.5-1.2-1.6-1.6
			c-1.6-0.6-2.3-1.4-2.3-2.5c0-1.4,1.1-2.6,3-2.6c0.9,0,1.7,0.3,2.1,0.5l-0.4,1.2c-0.3-0.2-1-0.5-1.8-0.5c-0.9,0-1.5,0.5-1.5,1.2
			s0.5,1,1.7,1.5c1.5,0.6,2.3,1.3,2.3,2.6c0,1.5-1.2,2.6-3.3,2.6c-1,0-1.8-0.2-2.4-0.6L335.3,179.2z"/>
	</g>
</g>
<g>
	<path class="st12" d="M236.6,126c0,2.2-0.8,3.9-2.5,5.1s-3.9,1.8-6.8,1.8h-12v-24.1h11c2.9,0,5.2,0.5,6.7,1.5
		c1.5,1,2.3,2.5,2.3,4.5c0,1.4-0.4,2.5-1.1,3.5c-0.8,0.9-1.9,1.6-3.5,1.9c1.9,0.2,3.4,0.8,4.5,1.8C236.1,123,236.6,124.4,236.6,126z
		 M230.1,115.5c0-1.1-0.3-1.9-1-2.3c-0.7-0.5-1.7-0.7-3.1-0.7h-5.7v6h5.8c1.4,0,2.5-0.2,3.1-0.7
		C229.8,117.3,230.1,116.5,230.1,115.5z M231.5,125.6c0-2.3-1.6-3.4-4.9-3.4h-6.4v6.9h6.6c1.6,0,2.8-0.3,3.5-0.9
		C231.2,127.7,231.5,126.8,231.5,125.6z"/>
	<path class="st12" d="M257.5,132.9l-2.1-6.2h-9.2l-2.1,6.2h-5l8.8-24.1h5.9l8.8,24.1H257.5z M250.8,112.5l-0.1,0.4
		c-0.1,0.4-0.3,0.9-0.4,1.4c-0.2,0.5-1.1,3.4-2.9,8.6h6.9l-2.4-6.9l-0.7-2.3L250.8,112.5z"/>
	<path class="st12" d="M280.5,132.9L270,114.3c0.2,1.8,0.3,3.2,0.3,4.3v14.2h-4.5v-24.1h5.8l10.6,18.7c-0.2-1.7-0.3-3.3-0.3-4.7v-14
		h4.5v24.1H280.5z"/>
	<path class="st12" d="M305.7,132.9l-10.5-18.5c0.2,1.8,0.3,3.2,0.3,4.3v14.2h-4.5v-24.1h5.8l10.6,18.7c-0.2-1.7-0.3-3.3-0.3-4.7
		v-14h4.5v24.1H305.7z"/>
	<path class="st12" d="M316.3,132.9v-24.1h18.9v3.9h-13.9v6h12.9v3.9h-12.9v6.3H336v3.9H316.3z"/>
	<path class="st12" d="M356.2,132.9l-5.6-9.1h-5.9v9.1h-5v-24.1h12c2.9,0,5.1,0.6,6.6,1.9c1.6,1.2,2.3,3,2.3,5.3
		c0,1.7-0.5,3.1-1.4,4.4s-2.3,2-3.9,2.4l6.5,10.1H356.2z M355.6,116.2c0-2.3-1.5-3.5-4.4-3.5h-6.5v7.1h6.6c1.4,0,2.5-0.3,3.2-1
		C355.3,118.2,355.6,117.3,355.6,116.2z"/>
	<path class="st12" d="M364,125.9v-4.2h8.9v4.2H364z"/>
	<path class="st12" d="M396.3,125.9c0,2.4-0.9,4.2-2.6,5.4c-1.7,1.2-4.3,1.9-7.7,1.9c-3.1,0-5.5-0.5-7.3-1.6c-1.8-1.1-2.9-2.8-3.4-5
		l4.9-0.8c0.3,1.3,1,2.2,1.9,2.8s2.3,0.9,4,0.9c3.5,0,5.3-1.1,5.3-3.2c0-0.7-0.2-1.2-0.6-1.7s-1-0.8-1.7-1.1
		c-0.7-0.3-2.1-0.7-4.2-1.1c-1.8-0.4-3.1-0.8-3.8-1c-0.7-0.3-1.3-0.6-1.9-0.9c-0.6-0.3-1.1-0.8-1.5-1.3c-0.4-0.5-0.7-1.1-0.9-1.7
		c-0.2-0.7-0.3-1.4-0.3-2.3c0-2.2,0.8-3.8,2.5-5c1.6-1.2,4-1.7,7.1-1.7c3,0,5.2,0.5,6.7,1.4c1.5,0.9,2.5,2.5,2.9,4.6l-4.9,0.7
		c-0.3-1-0.8-1.8-1.5-2.3c-0.8-0.5-1.9-0.8-3.3-0.8c-3.1,0-4.6,1-4.6,2.9c0,0.6,0.2,1.1,0.5,1.5c0.3,0.4,0.8,0.7,1.4,1
		c0.6,0.3,1.9,0.6,3.9,1.1c2.3,0.5,4,0.9,5,1.4c1,0.4,1.8,0.9,2.4,1.5s1,1.2,1.3,2C396.1,124,396.3,124.9,396.3,125.9z"/>
	<path class="st12" d="M417,132.9l-2.1-6.2h-9.2l-2.1,6.2h-5l8.8-24.1h5.9l8.8,24.1H417z M410.3,112.5l-0.1,0.4
		c-0.1,0.4-0.3,0.9-0.4,1.4c-0.2,0.5-1.1,3.4-2.9,8.6h6.9l-2.4-6.9l-0.7-2.3L410.3,112.5z"/>
	<path class="st12" d="M445.2,132.9v-14.6c0-0.3,0-0.7,0-1c0-0.3,0.1-1.7,0.2-4.3c-0.8,3.1-1.4,5.2-1.8,6.4l-4.3,13.4h-3.6
		l-4.3-13.4l-1.8-6.4c0.1,2.6,0.2,4.4,0.2,5.2v14.6h-4.5v-24.1h6.8l4.3,13.5l0.4,1.3l0.8,3.2l1.1-3.9l4.4-14.1h6.7v24.1H445.2z"/>
	<path class="st12" d="M474.2,116.4c0,1.5-0.4,2.9-1.1,4.2c-0.7,1.2-1.7,2.2-3,2.8c-1.3,0.7-2.9,1-4.7,1h-6v8.5h-5v-24.1h10.8
		c2.9,0,5.1,0.7,6.7,2C473.4,112.1,474.2,114,474.2,116.4z M469.1,116.5c0-2.5-1.5-3.8-4.5-3.8h-5.2v7.8h5.3c1.4,0,2.5-0.3,3.2-1
		S469.1,117.8,469.1,116.5z"/>
	<path class="st12" d="M477.7,132.9v-24.1h5V129h12.9v3.9H477.7z"/>
	<path class="st12" d="M499.1,132.9v-24.1h18.9v3.9h-13.9v6H517v3.9h-12.9v6.3h14.6v3.9H499.1z"/>
	<path class="st12" d="M543.4,129.3c3,0,5.2-1.5,6.3-4.6l4.4,1.7c-0.9,2.3-2.3,4.1-4.2,5.2c-1.8,1.1-4,1.7-6.6,1.7
		c-3.9,0-6.9-1.1-9-3.3c-2.1-2.2-3.2-5.3-3.2-9.2c0-4,1-7,3.1-9.1c2-2.1,5-3.2,8.9-3.2c2.8,0,5.1,0.6,6.9,1.7c1.8,1.1,3,2.8,3.7,5
		l-4.4,1.2c-0.4-1.2-1.1-2.2-2.2-2.9s-2.4-1.1-3.9-1.1c-2.3,0-4,0.7-5.2,2.1c-1.2,1.4-1.8,3.5-1.8,6.2c0,2.8,0.6,4.9,1.8,6.3
		C539.4,128.5,541.1,129.3,543.4,129.3z"/>
	<path class="st12" d="M574.5,132.9l-2.1-6.2h-9.2l-2.1,6.2h-5l8.8-24.1h5.9l8.8,24.1H574.5z M567.8,112.5l-0.1,0.4
		c-0.1,0.4-0.3,0.9-0.4,1.4c-0.2,0.5-1.1,3.4-2.9,8.6h6.9l-2.4-6.9l-0.7-2.3L567.8,112.5z"/>
	<path class="st12" d="M591,112.7v20.2h-5v-20.2h-7.8v-3.9h20.6v3.9H591z"/>
	<path class="st12" d="M601.5,132.9v-24.1h18.9v3.9h-13.9v6h12.9v3.9h-12.9v6.3h14.6v3.9H601.5z"/>
	<path class="st12" d="M636.3,129.3c1.3,0,2.6-0.2,3.8-0.6c1.2-0.4,2.2-0.9,2.9-1.5v-3.3h-5.9v-3.7h10.5v8.9c-1.3,1.3-2.9,2.3-5,3.1
		c-2,0.7-4.2,1.1-6.4,1.1c-3.9,0-6.9-1.1-9-3.3c-2.1-2.2-3.2-5.2-3.2-9.2c0-4,1.1-7,3.2-9.1c2.1-2.1,5.2-3.2,9.1-3.2
		c5.7,0,9.2,2.1,10.8,6.3l-4.6,1.4c-0.5-1.2-1.3-2.1-2.4-2.8c-1.1-0.6-2.3-0.9-3.8-0.9c-2.4,0-4.2,0.7-5.4,2.2s-1.8,3.5-1.8,6.2
		c0,2.7,0.6,4.8,1.9,6.3C632.2,128.5,634,129.3,636.3,129.3z"/>
	<path class="st12" d="M675.5,120.7c0,2.5-0.5,4.7-1.5,6.6c-1,1.9-2.4,3.4-4.3,4.4c-1.8,1-4,1.5-6.5,1.5c-3.8,0-6.7-1.1-8.9-3.3
		c-2.1-2.2-3.2-5.3-3.2-9.2c0-3.9,1.1-6.9,3.2-9c2.1-2.2,5.1-3.2,8.9-3.2c3.8,0,6.8,1.1,8.9,3.3
		C674.4,113.9,675.5,116.9,675.5,120.7z M670.4,120.7c0-2.6-0.6-4.6-1.8-6.1c-1.2-1.5-3-2.2-5.2-2.2c-2.3,0-4,0.7-5.2,2.2
		s-1.8,3.5-1.8,6.1c0,2.6,0.6,4.7,1.9,6.2c1.3,1.5,3,2.3,5.2,2.3c2.3,0,4-0.7,5.2-2.2C669.8,125.5,670.4,123.4,670.4,120.7z"/>
	<path class="st12" d="M695.9,132.9l-5.6-9.1h-5.9v9.1h-5v-24.1h12c2.9,0,5.1,0.6,6.6,1.9c1.6,1.2,2.3,3,2.3,5.3
		c0,1.7-0.5,3.1-1.4,4.4s-2.3,2-3.9,2.4l6.5,10.1H695.9z M695.3,116.2c0-2.3-1.5-3.5-4.4-3.5h-6.5v7.1h6.6c1.4,0,2.5-0.3,3.2-1
		C694.9,118.2,695.3,117.3,695.3,116.2z"/>
	<path class="st12" d="M715.2,123v9.9h-5V123l-8.6-14.2h5.3l5.8,10.2l5.8-10.2h5.3L715.2,123z"/>
	<path class="st12" d="M751.6,126.2c0,2.3-0.7,4-2.2,5.2c-1.5,1.2-3.6,1.8-6.3,1.8c-2.6,0-4.6-0.6-6.2-1.8c-1.5-1.2-2.4-2.9-2.7-5.2
		l4.9-0.4c0.3,2.3,1.6,3.5,3.9,3.5c1.2,0,2-0.3,2.7-0.9c0.6-0.6,1-1.4,1-2.6c0-1.1-0.4-1.9-1.2-2.5c-0.8-0.6-1.9-0.9-3.5-0.9h-1.7
		v-3.9h1.6c1.4,0,2.4-0.3,3.1-0.8c0.7-0.6,1-1.4,1-2.4c0-1-0.3-1.8-0.8-2.3c-0.6-0.6-1.4-0.8-2.4-0.8c-1,0-1.8,0.3-2.4,0.8
		s-1,1.3-1.1,2.3l-4.8-0.3c0.3-2.1,1.1-3.7,2.6-4.9c1.5-1.2,3.4-1.8,5.8-1.8c2.5,0,4.5,0.6,5.9,1.7c1.4,1.1,2.1,2.7,2.1,4.7
		c0,1.5-0.4,2.7-1.3,3.7c-0.9,1-2.2,1.6-3.8,1.9v0.1c1.8,0.2,3.3,0.8,4.3,1.8C751.1,123.4,751.6,124.6,751.6,126.2z"/>
</g>
</svg>
