<?xml version="1.0" encoding="utf-8"?>
<!-- Generator: Adobe Illustrator 21.1.0, SVG Export Plug-In . SVG Version: 6.00 Build 0)  -->
<svg version="1.1"
	 id="Layer_1" xmlns:cc="http://creativecommons.org/ns#" xmlns:dc="http://purl.org/dc/elements/1.1/" xmlns:rdf="http://www.w3.org/1999/02/22-rdf-syntax-ns#"
	 xmlns="http://www.w3.org/2000/svg" xmlns:xlink="http://www.w3.org/1999/xlink" x="0px" y="0px" viewBox="0 0 128 128"
	 enable-background="new 0 0 128 128" xml:space="preserve">
<g transform="translate(0 -1028.4)">
	<path fill="#27AE60" d="M123,1095.9c0,32.6-26.4,59-59,59c-32.6,0-59-26.4-59-59c0-32.6,26.4-59,59-59
		C96.6,1036.8,123,1063.2,123,1095.9z"/>
	<path fill="#2ECC71" d="M123,1089.9c0,32.6-26.4,59-59,59c-32.6,0-59-26.4-59-59c0-32.6,26.4-59,59-59
		C96.6,1030.9,123,1057.3,123,1089.9z"/>
	<path fill="#27AE60" d="M87.6,1072.2l-35.4,35.4l-14.8-14.8l-12.5,12.4l14.8,14.8l11.8,11.8l0.7,0.6l48-47.8L87.6,1072.2z"/>
	<path fill="#ECF0F1" d="M87.6,1066.3l-35.4,35.4L37.4,1087l-12.5,12.4l14.8,14.8l11.8,11.8l0.7,0.6l48-47.8L87.6,1066.3z"/>
</g>
</svg>
